<mxfile host="Electron" modified="2024-07-11T16:03:33.313Z" agent="Mozilla/5.0 (Windows NT 10.0; Win64; x64) AppleWebKit/537.36 (KHTML, like Gecko) draw.io/24.2.5 Chrome/120.0.6099.109 Electron/28.1.0 Safari/537.36" etag="Op_tL7QvIH1GVq2Totlv" version="24.2.5" type="device">
  <diagram name="Page-1" id="bfvtNT1rPqC4DjaO5_5I">
    <mxGraphModel dx="2074" dy="1205" grid="1" gridSize="10" guides="1" tooltips="1" connect="1" arrows="1" fold="1" page="1" pageScale="1" pageWidth="827" pageHeight="1169" math="0" shadow="0">
      <root>
        <mxCell id="0" />
        <mxCell id="1" parent="0" />
        <mxCell id="Xlqu5WIL9nAAs1W-_xud-57" value="" style="rounded=0;whiteSpace=wrap;html=1;fillColor=#ffe6cc;strokeColor=#d79b00;" vertex="1" parent="1">
          <mxGeometry x="20" y="380" width="440" height="830" as="geometry" />
        </mxCell>
        <mxCell id="Xlqu5WIL9nAAs1W-_xud-56" value="" style="edgeStyle=elbowEdgeStyle;elbow=horizontal;endArrow=classic;html=1;curved=0;rounded=0;endSize=8;startSize=8;entryX=0;entryY=0.25;entryDx=0;entryDy=0;exitX=0;exitY=0.5;exitDx=0;exitDy=0;" edge="1" parent="1" source="Xlqu5WIL9nAAs1W-_xud-40" target="Xlqu5WIL9nAAs1W-_xud-14">
          <mxGeometry width="50" height="50" relative="1" as="geometry">
            <mxPoint x="210" y="1060" as="sourcePoint" />
            <mxPoint x="210" y="770" as="targetPoint" />
            <Array as="points">
              <mxPoint x="80" y="740" />
            </Array>
          </mxGeometry>
        </mxCell>
        <mxCell id="Xlqu5WIL9nAAs1W-_xud-55" value="" style="edgeStyle=elbowEdgeStyle;elbow=horizontal;endArrow=classic;html=1;curved=0;rounded=0;endSize=8;startSize=8;entryX=0;entryY=0;entryDx=0;entryDy=0;exitX=0;exitY=0.5;exitDx=0;exitDy=0;" edge="1" parent="1" source="Xlqu5WIL9nAAs1W-_xud-42" target="Xlqu5WIL9nAAs1W-_xud-32">
          <mxGeometry width="50" height="50" relative="1" as="geometry">
            <mxPoint x="210" y="1100" as="sourcePoint" />
            <mxPoint x="40" y="845" as="targetPoint" />
            <Array as="points">
              <mxPoint x="100" y="910" />
            </Array>
          </mxGeometry>
        </mxCell>
        <mxCell id="Xlqu5WIL9nAAs1W-_xud-14" value="......" style="rounded=0;whiteSpace=wrap;html=1;fillColor=#f8cecc;strokeColor=#b85450;" vertex="1" parent="1">
          <mxGeometry x="200" y="400" width="170" height="360" as="geometry" />
        </mxCell>
        <mxCell id="Xlqu5WIL9nAAs1W-_xud-28" value="S_MOV_B32 VCC_HI" style="rounded=0;whiteSpace=wrap;html=1;fontSize=12;fillColor=#f8cecc;strokeColor=#b85450;" vertex="1" parent="1">
          <mxGeometry x="200" y="400" width="170" height="40" as="geometry" />
        </mxCell>
        <mxCell id="Xlqu5WIL9nAAs1W-_xud-29" value="0x0000" style="text;html=1;align=center;verticalAlign=middle;whiteSpace=wrap;rounded=0;fontSize=15;" vertex="1" parent="1">
          <mxGeometry x="370" y="405" width="60" height="30" as="geometry" />
        </mxCell>
        <mxCell id="Xlqu5WIL9nAAs1W-_xud-30" value="S_ENDPGM" style="rounded=0;whiteSpace=wrap;html=1;fontSize=12;fillColor=#f8cecc;strokeColor=#b85450;" vertex="1" parent="1">
          <mxGeometry x="200" y="720" width="170" height="40" as="geometry" />
        </mxCell>
        <mxCell id="Xlqu5WIL9nAAs1W-_xud-31" value="0x0028" style="text;html=1;align=center;verticalAlign=middle;whiteSpace=wrap;rounded=0;fontSize=15;" vertex="1" parent="1">
          <mxGeometry x="370" y="730" width="60" height="30" as="geometry" />
        </mxCell>
        <mxCell id="Xlqu5WIL9nAAs1W-_xud-32" value="VB Table Register Index" style="rounded=0;whiteSpace=wrap;html=1;fillColor=#fff2cc;strokeColor=#d6b656;" vertex="1" parent="1">
          <mxGeometry x="200" y="760" width="170" height="50" as="geometry" />
        </mxCell>
        <mxCell id="Xlqu5WIL9nAAs1W-_xud-33" value="CBV Register Index" style="rounded=0;whiteSpace=wrap;html=1;fillColor=#fff2cc;strokeColor=#d6b656;" vertex="1" parent="1">
          <mxGeometry x="200" y="810" width="170" height="50" as="geometry" />
        </mxCell>
        <mxCell id="Xlqu5WIL9nAAs1W-_xud-34" value="Fetch Shader Register Index" style="rounded=0;whiteSpace=wrap;html=1;fillColor=#fff2cc;strokeColor=#d6b656;" vertex="1" parent="1">
          <mxGeometry x="200" y="860" width="170" height="50" as="geometry" />
        </mxCell>
        <mxCell id="Xlqu5WIL9nAAs1W-_xud-36" value="" style="shape=curlyBracket;whiteSpace=wrap;html=1;rounded=1;labelPosition=left;verticalLabelPosition=middle;align=right;verticalAlign=middle;" vertex="1" parent="1">
          <mxGeometry x="180" y="760" width="20" height="200" as="geometry" />
        </mxCell>
        <mxCell id="Xlqu5WIL9nAAs1W-_xud-39" value="ShaderBinaryInfoVersion" style="rounded=0;whiteSpace=wrap;html=1;fillColor=#e1d5e7;strokeColor=#9673a6;" vertex="1" parent="1">
          <mxGeometry x="200" y="960" width="170" height="40" as="geometry" />
        </mxCell>
        <mxCell id="Xlqu5WIL9nAAs1W-_xud-40" value="ISA Length" style="rounded=0;whiteSpace=wrap;html=1;fillColor=#e1d5e7;strokeColor=#9673a6;" vertex="1" parent="1">
          <mxGeometry x="200" y="1000" width="170" height="40" as="geometry" />
        </mxCell>
        <mxCell id="Xlqu5WIL9nAAs1W-_xud-41" value="......" style="rounded=0;whiteSpace=wrap;html=1;fillColor=#e1d5e7;strokeColor=#9673a6;" vertex="1" parent="1">
          <mxGeometry x="200" y="1040" width="170" height="40" as="geometry" />
        </mxCell>
        <mxCell id="Xlqu5WIL9nAAs1W-_xud-42" value="Usage Base Offset In DW" style="rounded=0;whiteSpace=wrap;html=1;fillColor=#e1d5e7;strokeColor=#9673a6;" vertex="1" parent="1">
          <mxGeometry x="200" y="1080" width="170" height="40" as="geometry" />
        </mxCell>
        <mxCell id="Xlqu5WIL9nAAs1W-_xud-43" value="Num Input Usage Slots" style="rounded=0;whiteSpace=wrap;html=1;fillColor=#e1d5e7;strokeColor=#9673a6;" vertex="1" parent="1">
          <mxGeometry x="200" y="1120" width="170" height="40" as="geometry" />
        </mxCell>
        <mxCell id="Xlqu5WIL9nAAs1W-_xud-44" value="......" style="rounded=0;whiteSpace=wrap;html=1;fillColor=#e1d5e7;strokeColor=#9673a6;" vertex="1" parent="1">
          <mxGeometry x="200" y="1160" width="170" height="40" as="geometry" />
        </mxCell>
        <mxCell id="Xlqu5WIL9nAAs1W-_xud-45" value="" style="shape=curlyBracket;whiteSpace=wrap;html=1;rounded=1;labelPosition=left;verticalLabelPosition=middle;align=right;verticalAlign=middle;" vertex="1" parent="1">
          <mxGeometry x="180" y="400" width="20" height="360" as="geometry" />
        </mxCell>
        <mxCell id="Xlqu5WIL9nAAs1W-_xud-46" value="......" style="rounded=0;whiteSpace=wrap;html=1;fontSize=15;fillColor=#f8cecc;strokeColor=#b85450;" vertex="1" parent="1">
          <mxGeometry x="200" y="440" width="170" height="40" as="geometry" />
        </mxCell>
        <mxCell id="Xlqu5WIL9nAAs1W-_xud-47" value="......" style="rounded=0;whiteSpace=wrap;html=1;fontSize=15;fillColor=#f8cecc;strokeColor=#b85450;" vertex="1" parent="1">
          <mxGeometry x="200" y="680" width="170" height="40" as="geometry" />
        </mxCell>
        <mxCell id="Xlqu5WIL9nAAs1W-_xud-48" value="0x0004" style="text;html=1;align=center;verticalAlign=middle;whiteSpace=wrap;rounded=0;fontSize=15;" vertex="1" parent="1">
          <mxGeometry x="370" y="450" width="60" height="30" as="geometry" />
        </mxCell>
        <mxCell id="Xlqu5WIL9nAAs1W-_xud-49" value="" style="shape=curlyBracket;whiteSpace=wrap;html=1;rounded=1;labelPosition=left;verticalLabelPosition=middle;align=right;verticalAlign=middle;" vertex="1" parent="1">
          <mxGeometry x="180" y="960" width="20" height="240" as="geometry" />
        </mxCell>
        <mxCell id="Xlqu5WIL9nAAs1W-_xud-51" value="Shader Binary Info" style="text;html=1;align=center;verticalAlign=middle;whiteSpace=wrap;rounded=0;fontStyle=1" vertex="1" parent="1">
          <mxGeometry x="50" y="1015" width="150" height="30" as="geometry" />
        </mxCell>
        <mxCell id="Xlqu5WIL9nAAs1W-_xud-52" value="AMD Shader ISA" style="text;html=1;align=center;verticalAlign=middle;whiteSpace=wrap;rounded=0;fontStyle=1" vertex="1" parent="1">
          <mxGeometry x="50" y="565" width="150" height="30" as="geometry" />
        </mxCell>
        <mxCell id="Xlqu5WIL9nAAs1W-_xud-53" value="" style="edgeStyle=elbowEdgeStyle;elbow=horizontal;endArrow=classic;html=1;curved=0;rounded=0;endSize=8;startSize=8;entryX=0.25;entryY=1;entryDx=0;entryDy=0;" edge="1" parent="1" source="Xlqu5WIL9nAAs1W-_xud-43" target="Xlqu5WIL9nAAs1W-_xud-54">
          <mxGeometry width="50" height="50" relative="1" as="geometry">
            <mxPoint x="200" y="1090" as="sourcePoint" />
            <mxPoint x="60" y="860" as="targetPoint" />
            <Array as="points">
              <mxPoint x="65" y="970" />
            </Array>
          </mxGeometry>
        </mxCell>
        <mxCell id="Xlqu5WIL9nAAs1W-_xud-54" value="Num Input Usage Slots" style="rounded=0;whiteSpace=wrap;html=1;fillColor=#d5e8d4;strokeColor=#82b366;fontStyle=1" vertex="1" parent="1">
          <mxGeometry x="30" y="820" width="140" height="30" as="geometry" />
        </mxCell>
        <mxCell id="Xlqu5WIL9nAAs1W-_xud-58" value="......" style="rounded=0;whiteSpace=wrap;html=1;fillColor=#fff2cc;strokeColor=#d6b656;" vertex="1" parent="1">
          <mxGeometry x="200" y="910" width="170" height="50" as="geometry" />
        </mxCell>
      </root>
    </mxGraphModel>
  </diagram>
</mxfile>
